<?xml version="1.0" encoding="UTF-8" standalone="no"?>
<svg
   xmlns:dc="http://purl.org/dc/elements/1.1/"
   xmlns:cc="http://creativecommons.org/ns#"
   xmlns:rdf="http://www.w3.org/1999/02/22-rdf-syntax-ns#"
   xmlns:svg="http://www.w3.org/2000/svg"
   xmlns="http://www.w3.org/2000/svg"
   xmlns:sodipodi="http://sodipodi.sourceforge.net/DTD/sodipodi-0.dtd"
   xmlns:inkscape="http://www.inkscape.org/namespaces/inkscape"
   version="1.1"
   x="0px"
   y="0px"
   viewBox="8.555 0.274 429.99998 512"
   enable-background="new 8.555 0.274 83.73 100"
   xml:space="preserve"
   id="svg8"
   sodipodi:docname="brain.svg"
   width="430"
   height="512"
   inkscape:version="0.92.4 (5da689c313, 2019-01-14)"><metadata
     id="metadata14"><rdf:RDF><cc:Work
         rdf:about=""><dc:format>image/svg+xml</dc:format><dc:type
           rdf:resource="http://purl.org/dc/dcmitype/StillImage" /><dc:title></dc:title></cc:Work></rdf:RDF></metadata><defs
     id="defs12" /><sodipodi:namedview
     pagecolor="#ffffff"
     bordercolor="#666666"
     borderopacity="1"
     objecttolerance="10"
     gridtolerance="10"
     guidetolerance="10"
     inkscape:pageopacity="0"
     inkscape:pageshadow="2"
     inkscape:window-width="1920"
     inkscape:window-height="1001"
     id="namedview10"
     showgrid="false"
     inkscape:zoom="0.6675088"
     inkscape:cx="284.07486"
     inkscape:cy="54.604994"
     inkscape:window-x="-9"
     inkscape:window-y="-9"
     inkscape:window-maximized="1"
     inkscape:current-layer="svg8" /><path
     d="m 411.73252,77.218957 c 0,0 -44.5016,-82.5829328 -191.36406,-76.63880485 0,0 -156.748872,2.46264005 -177.023414,125.59466785 0,0 -4.935521,32.1372 2.47288,53.40499 0,0 12.861025,28.17957 -1.971136,47.9575 0,0 -27.196562,44.51184 -29.183058,46.9796 0,0 -15.8100503,21.27291 6.435632,26.20331 0,0 12.354161,3.46101 23.23893,3.46101 0,0 -3.952513,17.80167 -5.923649,22.2508 0,0 -3.466128,9.38978 9.389777,12.86103 0,0 9.886401,4.95088 6.420273,8.41189 0,0 -6.420273,1.98137 -9.389777,9.38977 0,0 -0.486385,10.37791 10.383024,14.33554 0,0 13.854276,5.92877 7.418646,26.69482 0,0 -13.844038,31.15419 17.30504,40.54397 0,0 32.147442,5.44238 57.352392,-8.89315 0,0 11.38139,-7.39816 14.3509,7.91526 0,0 10.87964,61.80153 11.36603,73.67954 0,0 162.19636,11.86778 195.82344,-50.43037 l -11.3814,-90.48796 c 0,0 -7.41864,-33.62195 32.62871,-69.72191 -0.005,-0.0154 105.32524,-99.90333 31.65082,-223.511503 z M 380.94695,240.1833 c 0,0 -37.52327,41.79833 -102.61684,-23.29013 0,0 -27.06345,-34.67664 -105.92426,-32.29592 0,0 -73.167572,11.87802 -95.141902,-44.5784 0,0 -25.517253,-71.815922 94.189612,-110.28636 0,0 124.4683,-34.6919988 211.40309,51.771769 0,0.0051 73.1522,80.289251 -1.9097,158.679041 z"
     id="path2"
     inkscape:connector-curvature="0"
     style="stroke-width:1" /></svg>