<?xml version="1.0" encoding="UTF-8" standalone="no"?>
<svg
   xmlns:dc="http://purl.org/dc/elements/1.1/"
   xmlns:cc="http://creativecommons.org/ns#"
   xmlns:rdf="http://www.w3.org/1999/02/22-rdf-syntax-ns#"
   xmlns:svg="http://www.w3.org/2000/svg"
   xmlns="http://www.w3.org/2000/svg"
   xmlns:sodipodi="http://sodipodi.sourceforge.net/DTD/sodipodi-0.dtd"
   xmlns:inkscape="http://www.inkscape.org/namespaces/inkscape"
   viewBox="0 0 508 512"
   version="1.1"
   x="0px"
   y="0px"
   id="svg10"
   sodipodi:docname="material.svg"
   width="508"
   height="512"
   inkscape:version="0.92.4 (5da689c313, 2019-01-14)">
  <metadata
     id="metadata16">
    <rdf:RDF>
      <cc:Work
         rdf:about="">
        <dc:format>image/svg+xml</dc:format>
        <dc:type
           rdf:resource="http://purl.org/dc/dcmitype/StillImage" />
        <dc:title />
      </cc:Work>
    </rdf:RDF>
  </metadata>
  <defs
     id="defs14" />
  <sodipodi:namedview
     pagecolor="#ffffff"
     bordercolor="#666666"
     borderopacity="1"
     objecttolerance="10"
     gridtolerance="10"
     guidetolerance="10"
     inkscape:pageopacity="0"
     inkscape:pageshadow="2"
     inkscape:window-width="1920"
     inkscape:window-height="1001"
     id="namedview12"
     showgrid="false"
     inkscape:zoom="0.98693684"
     inkscape:cx="268.67055"
     inkscape:cy="264.80968"
     inkscape:window-x="-9"
     inkscape:window-y="-9"
     inkscape:window-maximized="1"
     inkscape:current-layer="svg10" />
  <g
     style="display:inline;opacity:1;stroke-width:0.16435623"
     id="g4"
     transform="matrix(0,6.0843449,-6.0843449,0,560.73654,-45.632588)">
    <path
       style="opacity:1;fill:#000000;fill-opacity:1;stroke:none;stroke-width:0.4930687;stroke-linecap:butt;stroke-linejoin:round;stroke-miterlimit:4;stroke-dasharray:none;stroke-opacity:1"
       d="M 22.410156,8.7773438 A 14.910714,14.910714 0 0 0 7.5,23.689453 14.910714,14.910714 0 0 0 22.410156,38.599609 14.910714,14.910714 0 0 0 37.322266,23.689453 14.910714,14.910714 0 0 0 22.410156,8.7773438 Z m 19.240235,5.0585942 -2.677735,13.75 c -2.113523,8.645895 -7.491715,11.794151 -14.107422,12.857421 l -12.857422,2.322266 5.535157,9.820313 24.464843,0.179687 44.285157,39.285156 5.357422,-5 L 51.472656,42.408203 V 17.765625 Z"
       id="path2"
       inkscape:connector-curvature="0" />
  </g>
  <path
     style="fill:#000000;fill-opacity:1;stroke:#000000;stroke-width:1px;stroke-linecap:butt;stroke-linejoin:miter;stroke-opacity:1"
     d="m 290.03648,224.20781 -65.8288,-31.06178 -47.98112,50.83555 102.18031,21.59211 -18.40376,8.19033 -92.15421,-17.97217 -46.45793,45.18716 139.58973,30.67696 23.65439,-18.00781 -59.09462,-14.01707 9.32968,-5.07071 71.24942,10.58152 61.72215,-39.08685 -91.4173,-23.14422 153.41662,-9.19906 z"
     id="path825"
     inkscape:connector-curvature="0"
     sodipodi:nodetypes="cccccccccccccccc" />
  <circle
     style="opacity:1;vector-effect:none;fill:#ffffff;fill-opacity:1;fill-rule:evenodd;stroke:none;stroke-width:0.66519684;stroke-linecap:butt;stroke-linejoin:miter;stroke-miterlimit:10;stroke-dasharray:none;stroke-dashoffset:0;stroke-opacity:1;paint-order:stroke fill markers"
     id="path819"
     cx="389.08264"
     cy="48.951118"
     r="20.264721" />
</svg>
