<?xml version="1.0" encoding="UTF-8" standalone="no"?>
<svg
   xmlns:dc="http://purl.org/dc/elements/1.1/"
   xmlns:cc="http://creativecommons.org/ns#"
   xmlns:rdf="http://www.w3.org/1999/02/22-rdf-syntax-ns#"
   xmlns:svg="http://www.w3.org/2000/svg"
   xmlns="http://www.w3.org/2000/svg"
   xmlns:sodipodi="http://sodipodi.sourceforge.net/DTD/sodipodi-0.dtd"
   xmlns:inkscape="http://www.inkscape.org/namespaces/inkscape"
   version="1.1"
   x="0px"
   y="0px"
   viewBox="0 0 368 512"
   enable-background="new 0 0 67 67"
   xml:space="preserve"
   id="svg20"
   sodipodi:docname="ritual.svg"
   width="368"
   height="512"
   inkscape:version="0.92.4 (5da689c313, 2019-01-14)"><metadata
     id="metadata26"><rdf:RDF><cc:Work
         rdf:about=""><dc:format>image/svg+xml</dc:format><dc:type
           rdf:resource="http://purl.org/dc/dcmitype/StillImage" /><dc:title></dc:title></cc:Work></rdf:RDF></metadata><defs
     id="defs24" /><sodipodi:namedview
     pagecolor="#ffffff"
     bordercolor="#666666"
     borderopacity="1"
     objecttolerance="10"
     gridtolerance="10"
     guidetolerance="10"
     inkscape:pageopacity="0"
     inkscape:pageshadow="2"
     inkscape:window-width="1920"
     inkscape:window-height="1001"
     id="namedview22"
     showgrid="false"
     inkscape:zoom="0.4981409"
     inkscape:cx="-541.80778"
     inkscape:cy="-43.478837"
     inkscape:window-x="-9"
     inkscape:window-y="-9"
     inkscape:window-maximized="1"
     inkscape:current-layer="svg20" /><g
     id="g14"
     transform="matrix(7.877293,0,0,7.877293,-71.889318,-7.8893157)"
     style="stroke-width:0.12694716"><path
       d="m 29.549988,60.078487 h -16.73999 c -1.630005,0 -2.9600224,1.329956 -2.9600224,2.959961 0,1.630009 1.3300174,2.960026 2.9600224,2.960026 h 16.73999 c 1.630005,0 2.950012,-1.330017 2.950012,-2.960026 0,-1.630005 -1.320007,-2.959961 -2.950012,-2.959961 z"
       id="path2"
       inkscape:connector-curvature="0"
       style="stroke-width:0.12694716" /><path
       d="M 52.548865,60.688473 H 38.118872 c -1.460022,0 -2.650024,1.190002 -2.650024,2.659973 0,1.460026 1.190002,2.650028 2.650024,2.650028 h 14.429993 c 1.459961,0 2.659973,-1.190002 2.659973,-2.650028 0,-1.469971 -1.200012,-2.659973 -2.659973,-2.659973 z"
       id="path4"
       inkscape:connector-curvature="0"
       style="stroke-width:0.12694716" /><path
       d="m 12.059998,38.938473 v 19.710022 c 0.23999,-0.05005 0.48999,-0.07001 0.75,-0.07001 h 16.73999 c 0.26001,0 0.51001,0.01996 0.75,0.07001 v -22.53003 c -1.523743,0.276917 -3.322205,-0.202087 -4.579956,-1.5 v 3.419983 c 0,2.676026 -2.174561,4.78003 -4.790039,4.78003 -2.630005,0 -4.769959,-2.140015 -4.769959,-4.78003 v -1.309997 c -1.013733,1.723205 -3.039551,2.386963 -4.100036,2.210022 z"
       id="path6"
       inkscape:connector-curvature="0"
       style="stroke-width:0.12694716" /><path
       d="M 37.368872,42.668453 V 59.26849 c 0.239991,-0.06 0.489991,-0.08002 0.75,-0.08002 h 14.429993 c 0.26001,0 0.51001,0.02002 0.75,0.07001 V 40.208492 c -0.220032,0.04999 -0.450012,0.07001 -0.679993,0.07996 h -0.160034 c -1.089966,0 -2.089966,-0.359985 -2.899963,-0.97998 v 2.270019 c 0,2.455811 -1.997315,4.429993 -4.440003,4.429993 -2.440002,0 -4.420043,-1.98999 -4.420043,-4.429993 v -0.210022 c -0.919556,0.970703 -2.339661,1.423951 -3.329957,1.299988 z"
       id="path8"
       inkscape:connector-curvature="0"
       style="stroke-width:0.12694716" /><path
       d="m 50.91886,27.288448 h -4.830017 v -3.149963 c 1.210022,-0.190002 2.130005,-0.869995 2.640015,-1.940002 1.01001,-2.169983 0.08997,-5.369996 -1.340027,-7.090027 -1.669983,-2 -0.03998,-4.289978 0.03003,-4.380005 0.219971,-0.299988 0.190003,-0.719971 -0.07001,-0.9799807 -0.27002,-0.2600098 -0.679993,-0.289978 -0.979981,-0.070007 -5.179992,3.8300167 -5.929992,8.4799797 -5.010009,11.2999877 0.559997,1.710022 1.760009,2.869995 3.22998,3.160034 v 3.149963 h -4.839966 c -2.670044,0 -4.840027,2.179993 -4.840027,4.850037 v 6.309998 c 0,1.510009 1.220032,2.72998 2.720032,2.72998 0.23999,0 0.479981,-0.03998 0.669983,-0.08997 1.209961,-0.290039 2.059998,-1.380005 2.059998,-2.640014 v -1.869995 c 0,-0.51001 0.409973,-0.910035 0.919982,-0.910035 0.5,0 0.919983,0.410035 0.919983,0.910035 v 5 c 0,1.609985 1.309998,2.929992 2.920044,2.929992 0.789978,0 1.549988,-0.320007 2.070008,-0.859985 0.559997,-0.540039 0.869995,-1.280029 0.869995,-2.070007 v -7.130005 c 0,-0.299988 0.25,-0.549988 0.559997,-0.549988 0.299988,0 0.539978,0.25 0.539978,0.549988 v 1.039978 c 0,1.820007 1.479981,3.299987 3.299988,3.299987 0.01001,0 0.109985,0 0.109985,0 0.850037,-0.02997 1.640015,-0.369995 2.210022,-0.95996 0.630005,-0.619996 0.979981,-1.450013 0.979981,-2.340027 v -3.349976 c 0,-2.670044 -2.169983,-4.850037 -4.839966,-4.850037 z"
       id="path10"
       inkscape:connector-curvature="0"
       style="stroke-width:0.12694716" /><path
       d="M 27.650024,21.598446 H 21.929993 V 17.718441 C 23.349976,17.5285 24.419983,16.75848 25,15.51849 26.160034,13.048458 25.109985,9.3984947 23.470032,7.4284629 21.470032,5.0284995 23.419983,2.3084678 23.5,2.1984824 23.720032,1.8984946 23.690002,1.4784507 23.419983,1.2184409 23.160034,0.9584926 22.75,0.9284633 22.450012,1.148495 16.5,5.5584683 15.619995,10.888485 16.679993,14.118465 c 0.650024,1.979981 2.049987,3.299988 3.75,3.590027 v 3.889954 h -5.719971 c -3.030029,0 -5.5,2.460022 -5.5,5.5 v 7.320007 c 0,1.670044 1.359985,3.03003 3.039978,3.03003 0.27002,0 0.530029,-0.03003 0.73999,-0.09003 1.359986,-0.329956 2.299988,-1.539978 2.299988,-2.940003 v -2.16998 c 0,-0.669983 0.52002,-1.179992 1.190002,-1.179992 0.650025,0 1.180054,0.529968 1.180054,1.179992 v 5.789978 c 0,1.809998 1.469971,3.28003 3.269959,3.28003 0.880004,0 1.730041,-0.359986 2.320007,-0.960022 0.630005,-0.609986 0.970032,-1.429993 0.970032,-2.320008 V 29.76849 c 0,-0.410034 0.339965,-0.75 0.769958,-0.75 0.410034,0 0.75,0.339966 0.75,0.75 v 1.209961 c 0,2.050049 1.660034,3.710022 3.700012,3.710022 h 0.130005 c 0.950012,-0.03003 1.830017,-0.419983 2.479981,-1.090027 0.710022,-0.690003 1.100036,-1.619995 1.100036,-2.619995 v -3.880005 c 0,-3.039978 -2.470031,-5.5 -5.5,-5.5 z"
       id="path12"
       inkscape:connector-curvature="0"
       style="stroke-width:0.12694716" /></g></svg>