<svg width="199" height="802" viewBox="0 0 199 802" version="1.1" xmlns="http://www.w3.org/2000/svg" xmlns:xlink="http://www.w3.org/1999/xlink" xmlns:figma="http://www.figma.com/figma/ns">
<title>border</title>
<desc>Created using Figma</desc>
<g id="Canvas" transform="translate(-2310 -83)" figma:type="canvas">
<g id="border" style="mix-blend-mode:normal;" figma:type="vector-operation">
<use xlink:href="#path0_fill" transform="translate(2310.44 83)" style="mix-blend-mode:normal;"/>
</g>
</g>
<defs>
<path id="path0_fill" fill-rule="evenodd" d="M 2.69019 0L 195.521 0L 198.212 2.99123L 198.212 798.866L 195.521 801.857L 2.69019 801.857L 0 798.866L 0 2.99123L 2.69019 0ZM 197.474 5.64354L 197.474 3.33135L 195.215 0.820457L 193.762 0.820457C 194.99 1.39448 195.864 2.3295 196.483 3.35999L 196.508 3.35999L 196.508 3.40236C 196.944 4.13689 197.255 4.91438 197.474 5.64354ZM 5.47534 801.037C 4.07275 800.66 2.94946 799.801 2.1062 798.484L 2.1062 3.38744C 2.83936 2.24477 3.91504 1.25187 5.48877 0.820457L 192.737 0.820457C 194.139 1.19757 195.262 2.05621 196.106 3.37312L 196.106 798.47C 195.373 799.612 194.297 800.605 192.723 801.037L 5.47534 801.037ZM 1.70361 4.09094C 1.19043 5.10055 0.900146 6.15312 0.738037 6.99863L 0.738037 794.888C 0.870117 795.583 1.08472 796.413 1.43726 797.239C 1.49536 797.375 1.56006 797.499 1.625 797.623L 1.62769 797.628L 1.64014 797.652L 1.6499 797.671C 1.66797 797.705 1.68604 797.74 1.70361 797.775L 1.70361 4.09094ZM 196.508 4.08199C 196.534 4.13214 196.559 4.18157 196.585 4.23099C 196.651 4.35621 196.716 4.48135 196.774 4.61783C 197.126 5.44424 197.342 6.27425 197.474 6.9688L 197.474 794.858C 197.311 795.704 197.021 796.757 196.508 797.766L 196.508 4.08199ZM 4.44946 0.820457L 2.99658 0.820457L 0.738037 3.33135L 0.738037 5.64354C 0.956543 4.91438 1.26733 4.13689 1.70361 3.40236L 1.70361 3.35999L 1.72778 3.35999C 2.34814 2.3295 3.22144 1.39448 4.44946 0.820457ZM 0.738037 798.526L 0.738037 796.214C 0.956543 796.943 1.26733 797.72 1.70361 798.455L 1.70361 798.497L 1.72778 798.497C 2.34814 799.528 3.22144 800.463 4.44946 801.037L 2.99658 801.037L 0.738037 798.526ZM 193.762 801.037L 195.215 801.037L 197.474 798.526L 197.474 796.214C 197.255 796.943 196.944 797.72 196.508 798.455L 196.508 798.497L 196.483 798.497C 195.864 799.528 194.99 800.463 193.762 801.037Z"/>
</defs>
</svg>
