<svg width="74" height="23" viewBox="0 0 74 23" version="1.1" xmlns="http://www.w3.org/2000/svg" xmlns:xlink="http://www.w3.org/1999/xlink" xmlns:figma="http://www.figma.com/figma/ns">
<title>Component</title>
<desc>Created using Figma</desc>
<g id="Canvas" transform="translate(-2119 -230)" figma:type="canvas">
<g id="Component" style="mix-blend-mode:normal;" figma:type="symbol">
<g id="Path 5" style="mix-blend-mode:normal;" figma:type="vector">
<mask id="mask0_outline_ins">
<use xlink:href="#path0_fill" fill="white" transform="translate(2119.74 231.5)"/>
</mask>
<g mask="url(#mask0_outline_ins)">
<use xlink:href="#path1_stroke_2x" transform="translate(2119.74 231.5)" fill="#CCCCCC" style="mix-blend-mode:normal;"/>
</g>
</g>
<g id="Fill 1691" style="mix-blend-mode:normal;" figma:type="vector-operation">
<use xlink:href="#path2_fill" transform="translate(2119 230.5)" style="mix-blend-mode:normal;"/>
</g>
<g id="Fill 1672" style="mix-blend-mode:normal;" figma:type="vector-operation">
<use xlink:href="#path3_fill" transform="translate(2126.5 232.5)" style="mix-blend-mode:normal;"/>
</g>
</g>
</g>
<defs>
<path id="path0_fill" fill-rule="evenodd" d="M 0 2.7368L 4.90934 0L 17.4984 6.4713L 17.4984 14.3668L 4.90934 20.8105L 0 18.0919L 0 2.7368Z"/>
<path id="path1_stroke_2x" d="M 0 2.7368L -1.2173 0.553185L -2.5 1.26825L -2.5 2.7368L 0 2.7368ZM 4.90934 0L 6.05228 -2.22344L 4.8615 -2.83555L 3.69204 -2.18362L 4.90934 0ZM 17.4984 6.4713L 19.9984 6.4713L 19.9984 4.94544L 18.6414 4.24786L 17.4984 6.4713ZM 17.4984 14.3668L 18.6375 16.5922L 19.9984 15.8956L 19.9984 14.3668L 17.4984 14.3668ZM 4.90934 20.8105L 3.69823 22.9976L 4.86311 23.6427L 6.04842 23.0359L 4.90934 20.8105ZM 0 18.0919L -2.5 18.0919L -2.5 19.5652L -1.21111 20.279L 0 18.0919ZM 1.2173 4.92042L 6.12664 2.18362L 3.69204 -2.18362L -1.2173 0.553185L 1.2173 4.92042ZM 3.7664 2.22344L 16.3555 8.69474L 18.6414 4.24786L 6.05228 -2.22344L 3.7664 2.22344ZM 14.9984 6.4713L 14.9984 14.3668L 19.9984 14.3668L 19.9984 6.4713L 14.9984 6.4713ZM 16.3593 12.1414L 3.77026 18.5851L 6.04842 23.0359L 18.6375 16.5922L 16.3593 12.1414ZM 6.12045 18.6235L 1.21111 15.9049L -1.21111 20.279L 3.69823 22.9976L 6.12045 18.6235ZM 2.5 18.0919L 2.5 2.7368L -2.5 2.7368L -2.5 18.0919L 2.5 18.0919Z"/>
<path id="path2_fill" fill-rule="evenodd" d="M 4.65259 0.549973L 5.64307 0L 6.67041 0.52626L 18.4807 6.57001L 19 6.83611L 19 7.24147L 19 14.7579L 19 15.1633L 18.4807 15.4294L 6.67041 21.4731L 5.64307 22L 4.65161 21.4488L 0.474121 19.1292L 0 18.8655L 0 18.4815L 0 3.51672L 0 3.13269L 0.474121 2.86897L 4.65259 0.549973ZM 17.4932 7.24147L 5.68408 1.19772L 1.50659 3.51672L 1.50659 18.4815L 5.68408 20.8017L 17.4932 14.7579L 17.4932 7.24147Z"/>
<path id="path3_fill" fill-rule="evenodd" d="M 66.5 4.27089L 61.2288 0L 12.7002 0L 0 0L 1.34155 0.942307L 10.1238 0.942307L 16.0735 6.81683C 15.8713 7.3596 15.73 7.96542 15.6641 8.63773C 15.2056 8.7179 14.8538 9.03246 14.8538 9.42857C 14.8538 9.82401 15.2056 10.1393 15.6648 10.2181C 15.73 10.889 15.8713 11.4941 16.0735 12.0362L 10.1194 17.9148L 1.34058 17.9148L 0 18.8571L 12.7026 18.8571L 61.2288 18.8571L 66.5 14.5863L 66.5 4.27089ZM 13.6265 17.9148L 15.0002 16.5141L 58.8198 16.5141C 56.9614 17.3056 55.1082 17.7099 53.6956 17.9148L 13.6265 17.9148ZM 18.6189 11.3098L 18.6189 7.54944L 17.0261 5.92525C 16.5913 6.66264 16.2732 7.56178 16.1692 8.65349C 16.5811 8.75835 16.8872 9.05988 16.8872 9.42859C 16.8872 9.7966 16.582 10.0974 16.1699 10.203C 16.2742 11.2947 16.592 12.1945 17.0269 12.9326L 18.6189 11.3098ZM 15.4011 2.75291L 20.105 2.75291C 19.3108 3.1031 18.2373 3.7151 17.334 4.72456L 15.4011 2.75291ZM 20.105 16.1035C 19.3115 15.754 18.238 15.1427 17.3357 14.1326L 15.4028 16.1035L 20.105 16.1035ZM 16.2664 12.4933C 16.395 12.7709 16.5371 13.0299 16.6929 13.2732L 12.1404 17.9149L 10.7751 17.9149L 16.2664 12.4933ZM 16.2673 6.36041C 16.3958 6.08492 16.5371 5.82655 16.6909 5.58395L 12.1394 0.942307L 10.7793 0.942307L 16.2673 6.36041ZM 53.1924 0.942307C 54.6116 1.11707 56.6223 1.50084 58.6565 2.34241L 14.9976 2.34241L 13.6248 0.942307L 53.1924 0.942307ZM 56.0623 0.942307C 59.186 1.71329 63.0642 3.38203 65.3372 6.99091L 65.3372 4.6622L 60.7458 0.942307L 56.0623 0.942307ZM 65.3372 10.6621C 64.0388 13.3164 61.8918 15.029 59.6538 16.1303L 21.3381 16.1035C 21.092 16.0446 19.1033 15.5155 17.6501 13.8119L 19.7817 11.6387L 19.7817 7.22049L 17.6484 5.04529C 19.1016 3.3416 21.092 2.81186 21.3364 2.75291L 59.5684 2.75291C 61.8369 3.85353 64.0217 5.57642 65.3372 8.26353L 65.3372 10.6621ZM 60.7461 17.9149L 65.3374 14.1957L 65.3374 11.9375C 63.1289 15.4429 59.4019 17.1165 56.3281 17.9149L 60.7461 17.9149Z"/>
</defs>
</svg>
